<svg xmlns="http://www.w3.org/2000/svg" viewBox="0 0 128 128">

  <!-- outer keycap body (dark teal) -->
  <path fill="#427687" d="M116 4H12c-4.42 0-8 3.58-8 8v104c0 4.42 3.58 8 8 8h104c4.42 0 8-3.58 8-8V12c0-4.42-3.58-8-8-8"/>

  <!-- keycap face (lighter, gives the 3D raised look) -->
  <path fill="#8CAFBF" d="M121.7 6.3A8.4 8.4 0 0 0 116 4H12c-4.42 0-8 3.58-8 8v104c.02 2.12.84 4.16 2.3 5.7l16.8-16.8h76A5.91 5.91 0 0 0 105 99V23z"/>

  <!-- top-left highlight (gives depth) -->
  <path fill="#B4E1ED" d="M39.7 12.9c0-2.3-1.6-3-10.8-2.7c-7.7.3-11.5 1.2-13.8 4s-2.9 8.5-3 15.3c0 4.8 0 9.3 2.5 9.3c3.4 0 3.4-7.9 6.2-12.3c5.4-8.7 18.9-10.6 18.9-13.6" opacity=".5"/>

  <!-- chess knight -->
  <text
    x="64" y="68"
    font-size="80"
    text-anchor="middle"
    dominant-baseline="middle"
    fill="#FAFAFA"
  >♞</text>

</svg>
